PathFileType	4	(X/Y/Z)	D:\Research_projects\MuscleProsody\BulkSports2Dtrack\RetrackedSports2D\p1_sample60_cam3\p1_sample60_cam3_Sports2D\p1_sample60_cam3_Sports2D_px_person00.trc
DataRate	CameraRate	NumFrames	NumMarkers	Units	OrigDataRate	OrigDataStartFrame	OrigNumFrames
60	60	6	22	m	60	487	780
Frame#	Time	Hip			RHip			RKnee			RAnkle			RBigToe			RSmallToe			RHeel			LHip			LKnee			LAnkle			LBigToe			LSmallToe			LHeel			Neck			Head			Nose			RShoulder			RElbow			RWrist			LShoulder			LElbow			LWrist		
		X1	Y1	Z1	X2	Y2	Z2	X3	Y3	Z3	X4	Y4	Z4	X5	Y5	Z5	X6	Y6	Z6	X7	Y7	Z7	X8	Y8	Z8	X9	Y9	Z9	X10	Y10	Z10	X11	Y11	Z11	X12	Y12	Z12	X13	Y13	Z13	X14	Y14	Z14	X15	Y15	Z15	X16	Y16	Z16	X17	Y17	Z17	X18	Y18	Z18	X19	Y19	Z19	X20	Y20	Z20	X21	Y21	Z21	X22	Y22	Z22
487	8.116666666666667	229.73650192990095	550.1567006493832	0.0	204.64481897336051	546.6962806012043	0.0	203.27094987138926	664.1873299512416	0.0	218.93931603084246	772.3812862722317	0.0	182.71110243217038	810.7079888828439	0.0	182.217043118906	799.4599086339972	0.0	233.4099674951893	786.6228837250383	0.0	252.96265997049682	551.494733979571	0.0	246.5075864297182	670.1852753165812	0.0	255.28948977080705	793.2880978856803	0.0	221.5011988650146	830.3861262840525	0.0	239.87617368541893	833.8349407668455	0.0	266.45001370038653	801.3998263467939	0.0	228.610184409017	358.6704833444272	0.0	193.84013299023945	269.0721106962146	0.0	178.97701147427668	324.3494694750497	0.0	199.76945833393034	389.50705752269045	0.0	163.4695741997148	456.45403163385413	0.0	139.44068348435337	422.3617202584968	0.0	277.7929401592146	385.4609196697861	0.0	295.1588318451156	468.8121434967592	0.0	212.01160746258952	441.7431395047243	0.0
488	8.133333333333333	229.77004171129704	550.1844059186824	0.0	204.64216711658668	546.7369446441239	0.0	203.29286532485992	664.5129604783168	0.0	219.16918953705613	772.3542388341291	0.0	182.77520910503353	810.8423995474851	0.0	182.1349781657617	799.4999482946812	0.0	233.58203543297165	786.5712876856921	0.0	253.10663856015103	551.5568550225191	0.0	246.57081671737618	670.4472636454217	0.0	255.37347673764617	793.4320965167441	0.0	221.51508283284116	830.3206777794057	0.0	239.86201161321102	833.9424846748203	0.0	266.606930988811	801.5227520029968	0.0	228.66736232026406	358.61864137271994	0.0	193.27685342991697	269.19003156020995	0.0	178.67540559825417	324.64829143095704	0.0	200.0414135675372	389.60562612384365	0.0	166.14829018986157	459.4560301351733	0.0	136.12868816448693	422.3867615089898	0.0	278.1854650449643	386.0437733341901	0.0	294.08709031592787	470.9656757499251	0.0	215.66368838296188	441.4404974887859	0.0
489	8.15	229.7801178461141	550.2091986539779	0.0	204.6521785936288	546.8420553996183	0.0	203.26957664845764	664.8561617311344	0.0	219.43813228619877	772.293030487103	0.0	182.83325388788293	810.9928604470499	0.0	182.0068950330637	799.5050441626646	0.0	233.77450600567815	786.4437791651559	0.0	253.1672056983303	551.6961566205116	0.0	246.60092772549027	670.76459700171	0.0	255.46619675116025	793.5578544173778	0.0	221.5686013335286	830.2682039229053	0.0	239.89106839326675	834.0675184664588	0.0	266.76235665672976	801.6634029252835	0.0	228.71897618142282	358.63069977495934	0.0	192.91080203760185	269.27021791267003	0.0	178.47191234228512	324.95463907666397	0.0	200.2174019411113	389.7611788127233	0.0	168.74689970229565	462.1256553427899	0.0	132.27698616245414	424.07900144503947	0.0	278.5501140381054	386.628084231795	0.0	292.98907741058963	473.00404739519246	0.0	219.89614947605546	443.04018968730946	0.0
490	8.166666666666666	229.77912792164148	550.2254601766577	0.0	204.68743705271947	546.9900800557712	0.0	203.2086438019417	665.1936069274784	0.0	219.73799205113053	772.2095916550202	0.0	182.8816600153477	811.156942672536	0.0	181.83634958848148	799.4878614329341	0.0	233.97545592424416	786.2546568907327	0.0	253.15323693983862	551.8890963868355	0.0	246.59852847436923	671.120185428298	0.0	255.56819421013404	793.6631212471186	0.0	221.6623712652122	830.2278203434536	0.0	239.9760589783752	834.1956297364168	0.0	266.91346387336085	801.8153029100192	0.0	228.76308097977952	358.7018310632086	0.0	192.74640290930014	269.3142573160844	0.0	178.36931929513776	325.26935624932435	0.0	200.30027758750109	389.9717201494438	0.0	171.15477868626775	464.37812902988145	0.0	128.03801261876893	427.31861693085415	0.0	278.85640829535464	387.1823920459944	0.0	291.9406764381858	474.8079315824512	0.0	224.54310577447856	446.5235044133792	0.0
491	8.183333333333334	229.77693603462362	550.2335414329712	0.0	204.75595826001165	547.1628681326359	0.0	203.12224198451383	665.5079201423151	0.0	220.0607424725523	772.1162247413148	0.0	182.91612105799985	811.3283315844141	0.0	181.63256261376108	799.4597761216163	0.0	234.17603767337928	786.0322661971845	0.0	253.07972544878663	552.1071644410931	0.0	246.5688450900313	671.5000539470732	0.0	255.6760046536292	793.7450477032693	0.0	221.79216394407047	830.1947072443918	0.0	240.12001350112303	834.3117652715888	0.0	267.0563883307907	801.9761315193447	0.0	228.79843537691357	358.8195652857909	0.0	192.76668680475169	269.3254964454098	0.0	178.35956580337776	325.59042626607174	0.0	200.3007284775671	390.22838348468014	0.0	173.28064473341263	466.1661928825854	0.0	123.5928588980813	431.8809151703529	0.0	279.0797081473011	387.67824811795106	0.0	291.03282894144536	476.29096654849207	0.0	229.42840887876528	451.7245635078504	0.0
492	8.2	229.77790460886433	550.2398939641861	0.0	204.85797601376925	547.3468546194381	0.0	203.02586759616	665.7908956938012	0.0	220.39690630081657	772.0227444249554	0.0	182.93143674209568	811.4943419455583	0.0	181.41319572423967	799.4267052400431	0.0	234.37577236823122	785.8117360145197	0.0	252.96275899836448	552.3235481182863	0.0	246.52222213306064	671.893733957028	0.0	255.7835523644591	793.8013911086291	0.0	221.94714551821386	830.1636742240368	0.0	240.31214153093939	834.4041871649885	0.0	267.18826114811566	802.1441591871003	0.0	228.82329644000302	358.9641022333255	0.0	192.93672531947453	269.3093358524758	0.0	178.42485790385442	325.9102230614182	0.0	200.23409441847923	390.516939377948	0.0	175.0625556679475	467.47858277410614	0.0	119.14892349009554	437.45246400245935	0.0	279.2044504619549	388.0930230368967	0.0	290.3553569895769	477.41072888607573	0.0	234.3723109473249	458.3105643237514	0.0
